{
  "accessors": [
    {
      "bufferView": 2,
      "componentType": 5126,
      "count": 221,
      "max": [
        0.0,
        0.25,
        1.25
      ],
      "min": [
        -1.25,
        -0.25,
        -0.0
      ],
      "type": "VEC3"
    },
    {
      "bufferView": 2,
      "byteOffset": 2652,
      "componentType": 5126,
      "count": 221,
      "max": [
        0.9640017151832581,
        0.9999422430992126,
        0.997859001159668
      ],
      "min": [
        -0.997859001159668,
        -0.9999422430992126,
        -0.9640017151832581
      ],
      "type": "VEC3"
    },
    {
      "bufferView": 1,
      "componentType": 5126,
      "count": 221,
      "max": [
        1.0,
        1.0
      ],
      "min": [
        0.0,
        0.0
      ],
      "type": "VEC2"
    },
    {
      "bufferView": 0,
      "componentType": 5125,
      "count": 864,
      "type": "SCALAR"
    },
    {
      "bufferView": 2,
      "byteOffset": 5304,
      "componentType": 5126,
      "count": 480,
      "max": [
        1.3227499723434448,
        1.0,
        1.322759985923767
      ],
      "min": [
        -1.3227699995040894,
        -1.6352699995040894,
        -1.322759985923767
      ],
      "type": "VEC3"
    },
    {
      "bufferView": 2,
      "byteOffset": 11064,
      "componentType": 5126,
      "count": 480,
      "max": [
        1.0,
        1.0,
        1.0
      ],
      "min": [
        -1.0,
        -1.0,
        -0.9951873421669006
      ],
      "type": "VEC3"
    },
    {
      "bufferView": 1,
      "byteOffset": 1768,
      "componentType": 5126,
      "count": 480,
      "max": [
        1.0,
        1.0
      ],
      "min": [
        0.0,
        0.0
      ],
      "type": "VEC2"
    },
    {
      "bufferView": 0,
      "byteOffset": 3456,
      "componentType": 5125,
      "count": 1524,
      "type": "SCALAR"
    },
    {
      "bufferView": 2,
      "byteOffset": 16824,
      "componentType": 5126,
      "count": 897,
      "max": [
        1.404360055923462,
        1.0,
        1.404360055923462
      ],
      "min": [
        -1.404360055923462,
        -1.0,
        -1.404360055923462
      ],
      "type": "VEC3"
    },
    {
      "bufferView": 2,
      "byteOffset": 27588,
      "componentType": 5126,
      "count": 897,
      "max": [
        1.0,
        1.0,
        1.0
      ],
      "min": [
        -1.0,
        -1.0,
        -0.9951873421669006
      ],
      "type": "VEC3"
    },
    {
      "bufferView": 1,
      "byteOffset": 5608,
      "componentType": 5126,
      "count": 897,
      "max": [
        1.0,
        1.0
      ],
      "min": [
        0.0,
        0.0
      ],
      "type": "VEC2"
    },
    {
      "bufferView": 0,
      "byteOffset": 9552,
      "componentType": 5125,
      "count": 2484,
      "type": "SCALAR"
    },
    {
      "bufferView": 2,
      "byteOffset": 38352,
      "componentType": 5126,
      "count": 4,
      "max": [
        1.0,
        0.0,
        1.0
      ],
      "min": [
        -1.0,
        0.0,
        -1.0
      ],
      "type": "VEC3"
    },
    {
      "bufferView": 2,
      "byteOffset": 38400,
      "componentType": 5126,
      "count": 4,
      "max": [
        0.0,
        1.0,
        0.0
      ],
      "min": [
        0.0,
        1.0,
        0.0
      ],
      "type": "VEC3"
    },
    {
      "bufferView": 1,
      "byteOffset": 12784,
      "componentType": 5126,
      "count": 4,
      "max": [
        1.0,
        1.0
      ],
      "min": [
        0.0,
        0.0
      ],
      "type": "VEC2"
    },
    {
      "bufferView": 0,
      "byteOffset": 19488,
      "componentType": 5125,
      "count": 6,
      "type": "SCALAR"
    },
    {
      "bufferView": 2,
      "byteOffset": 38448,
      "componentType": 5126,
      "count": 31230,
      "max": [
        1.0090199708938599,
        1.0148199796676636,
        2.7700400352478027
      ],
      "min": [
        -1.0008599758148193,
        -1.0117700099945068,
        -2.9004299640655518
      ],
      "type": "VEC3"
    },
    {
      "bufferView": 2,
      "byteOffset": 413208,
      "componentType": 5126,
      "count": 31230,
      "max": [
        0.9999790191650391,
        0.9999687075614929,
        0.999901533126831
      ],
      "min": [
        -0.9998335838317871,
        -0.9999446272850037,
        -0.9998997449874878
      ],
      "type": "VEC3"
    },
    {
      "bufferView": 1,
      "byteOffset": 12816,
      "componentType": 5126,
      "count": 31230,
      "max": [
        0.8588899970054626,
        0.9998599886894226
      ],
      "min": [
        0.00014000000373926014,
        0.00014000000373926014
      ],
      "type": "VEC2"
    },
    {
      "bufferView": 0,
      "byteOffset": 19512,
      "componentType": 5125,
      "count": 46848,
      "type": "SCALAR"
    },
    {
      "bufferView": 2,
      "byteOffset": 787968,
      "componentType": 5126,
      "count": 12550,
      "max": [
        290.6851806640625,
        482.541259765625,
        285.23175048828125
      ],
      "min": [
        -277.3255615234375,
        -302.293212890625,
        -289.91168212890625
      ],
      "type": "VEC3"
    },
    {
      "bufferView": 2,
      "byteOffset": 938568,
      "componentType": 5126,
      "count": 12550,
      "max": [
        0.9999627470970154,
        0.999872624874115,
        0.9999670386314392
      ],
      "min": [
        -0.9999546408653259,
        -0.9999415278434753,
        -0.9999625086784363
      ],
      "type": "VEC3"
    },
    {
      "bufferView": 1,
      "byteOffset": 262656,
      "componentType": 5126,
      "count": 12550,
      "max": [
        0.9682000279426575,
        0.9964200258255005
      ],
      "min": [
        0.23396000266075134,
        0.2826499938964844
      ],
      "type": "VEC2"
    },
    {
      "bufferView": 1,
      "byteOffset": 363056,
      "componentType": 5126,
      "count": 12550,
      "max": [
        0.9682000279426575,
        0.9964200258255005
      ],
      "min": [
        0.23396000266075134,
        0.2826499938964844
      ],
      "type": "VEC2"
    },
    {
      "bufferView": 1,
      "byteOffset": 463456,
      "componentType": 5126,
      "count": 12550,
      "max": [
        0.9682000279426575,
        0.9964200258255005
      ],
      "min": [
        0.23396000266075134,
        0.2826499938964844
      ],
      "type": "VEC2"
    },
    {
      "bufferView": 1,
      "byteOffset": 563856,
      "componentType": 5126,
      "count": 12550,
      "max": [
        0.9682000279426575,
        0.9964200258255005
      ],
      "min": [
        0.23396000266075134,
        0.2826499938964844
      ],
      "type": "VEC2"
    },
    {
      "bufferView": 0,
      "byteOffset": 206904,
      "componentType": 5125,
      "count": 50820,
      "type": "SCALAR"
    },
    {
      "bufferView": 3,
      "componentType": 5126,
      "count": 124,
      "max": [
        5.583330154418945
      ],
      "min": [
        0.041669998317956924
      ],
      "type": "SCALAR"
    },
    {
      "bufferView": 4,
      "componentType": 5126,
      "count": 124,
      "max": [
        -0.43998000025749207,
        -0.43998000025749207,
        -0.4308082163333893,
        0.5535500049591064
      ],
      "min": [
        -0.5607176423072815,
        -0.5607176423072815,
        -0.5535500049591064,
        0.4308082163333893
      ],
      "type": "VEC4"
    }
  ],
  "animations": [
    {
      "channels": [
        {
          "sampler": 0,
          "target": {
            "node": 17,
            "path": "rotation"
          }
        }
      ],
      "name": "ChainAction.001_Chain_1",
      "samplers": [
        {
          "input": 27,
          "interpolation": "LINEAR",
          "output": 28
        }
      ]
    }
  ],
  "asset": {
    "extras": {
      "author": "Hapk (https://sketchfab.com/neiltonanimacoes)",
      "license": "SKETCHFAB Standard (https://sketchfab.com/licenses)",
      "source": "https://sketchfab.com/3d-models/punch-bag-dc939aa468a74c9a814f72fef1cb5a15",
      "title": "Punch bag"
    },
    "generator": "Sketchfab-16.21.0",
    "version": "2.0"
  },
  "bufferViews": [
    {
      "buffer": 0,
      "byteLength": 410184,
      "name": "floatBufferViews",
      "target": 34963
    },
    {
      "buffer": 0,
      "byteLength": 664256,
      "byteOffset": 410184,
      "byteStride": 8,
      "name": "floatBufferViews",
      "target": 34962
    },
    {
      "buffer": 0,
      "byteLength": 1089168,
      "byteOffset": 1074440,
      "byteStride": 12,
      "name": "floatBufferViews",
      "target": 34962
    },
    {
      "buffer": 0,
      "byteLength": 496,
      "byteOffset": 2163608,
      "name": "floatBufferViews"
    },
    {
      "buffer": 0,
      "byteLength": 1984,
      "byteOffset": 2164104,
      "byteStride": 16,
      "name": "floatBufferViews"
    }
  ],
  "buffers": [
    {
      "byteLength": 2166088,
      "uri": "scene.bin"
    }
  ],
  "extensionsRequired": [
    "KHR_materials_pbrSpecularGlossiness"
  ],
  "extensionsUsed": [
    "KHR_materials_pbrSpecularGlossiness"
  ],
  "images": [
    {
      "uri": "textures/Material_153_diffuse.jpeg"
    }
  ],
  "materials": [
    {
      "doubleSided": true,
      "extensions": {
        "KHR_materials_pbrSpecularGlossiness": {
          "diffuseFactor": [
            1.0,
            1.0,
            1.0,
            1.0
          ],
          "diffuseTexture": {
            "index": 0
          },
          "glossinessFactor": 0.4,
          "specularFactor": [
            1.0,
            1.0,
            1.0
          ]
        }
      },
      "name": "Material_153"
    },
    {
      "doubleSided": true,
      "extensions": {
        "KHR_materials_pbrSpecularGlossiness": {
          "diffuseFactor": [
            1.0,
            1.0,
            1.0,
            1.0
          ],
          "glossinessFactor": 0.06666666269302368,
          "specularFactor": [
            1.0,
            1.0,
            1.0
          ]
        }
      },
      "name": "Material.001"
    },
    {
      "doubleSided": true,
      "extensions": {
        "KHR_materials_pbrSpecularGlossiness": {
          "diffuseFactor": [
            1.0,
            1.0,
            1.0,
            1.0
          ],
          "glossinessFactor": 0.4,
          "specularFactor": [
            1.0,
            1.0,
            1.0
          ]
        }
      },
      "name": "Pipe_Material"
    },
    {
      "doubleSided": true,
      "extensions": {
        "KHR_materials_pbrSpecularGlossiness": {
          "diffuseFactor": [
            1.0,
            1.0,
            1.0,
            1.0
          ],
          "glossinessFactor": 0.4,
          "specularFactor": [
            1.0,
            1.0,
            1.0
          ]
        }
      },
      "name": "Material.002"
    }
  ],
  "meshes": [
    {
      "name": "Object_14_0",
      "primitives": [
        {
          "attributes": {
            "NORMAL": 1,
            "POSITION": 0,
            "TEXCOORD_0": 2
          },
          "indices": 3,
          "material": 2,
          "mode": 4
        }
      ]
    },
    {
      "name": "Object_12_0",
      "primitives": [
        {
          "attributes": {
            "NORMAL": 5,
            "POSITION": 4,
            "TEXCOORD_0": 6
          },
          "indices": 7,
          "material": 3,
          "mode": 4
        }
      ]
    },
    {
      "name": "Object_10_0",
      "primitives": [
        {
          "attributes": {
            "NORMAL": 9,
            "POSITION": 8,
            "TEXCOORD_0": 10
          },
          "indices": 11,
          "material": 2,
          "mode": 4
        }
      ]
    },
    {
      "name": "Object_8_0",
      "primitives": [
        {
          "attributes": {
            "NORMAL": 13,
            "POSITION": 12,
            "TEXCOORD_0": 14
          },
          "indices": 15,
          "material": 2,
          "mode": 4
        }
      ]
    },
    {
      "name": "Cylinder_0",
      "primitives": [
        {
          "attributes": {
            "NORMAL": 17,
            "POSITION": 16,
            "TEXCOORD_0": 18
          },
          "indices": 19,
          "material": 1,
          "mode": 4
        }
      ]
    },
    {
      "name": "Object_7_0",
      "primitives": [
        {
          "attributes": {
            "NORMAL": 21,
            "POSITION": 20,
            "TEXCOORD_0": 22,
            "TEXCOORD_1": 23,
            "TEXCOORD_2": 24,
            "TEXCOORD_3": 25
          },
          "indices": 26,
          "material": 0,
          "mode": 4
        }
      ]
    }
  ],
  "nodes": [
    {
      "children": [
        1
      ],
      "matrix": [
        1.0,
        0.0,
        0.0,
        0.0,
        0.0,
        2.220446049250313e-16,
        -1.0,
        0.0,
        0.0,
        1.0,
        2.220446049250313e-16,
        0.0,
        0.0,
        0.0,
        0.0,
        1.0
      ],
      "name": "Sketchfab_model"
    },
    {
      "children": [
        2,
        4,
        18,
        20
      ],
      "name": "Root"
    },
    {
      "children": [
        3
      ],
      "matrix": [
        -0.29086000000000006,
        0.9551700000000001,
        -0.05519000000000001,
        0.0,
        -0.7711,
        -0.19988000000000003,
        0.6045200000000001,
        0.0,
        0.5663900000000001,
        0.21839000000000003,
        0.7946700000000001,
        0.0,
        1.60278,
        -1.08656,
        3.18699,
        1.0
      ],
      "name": "Lamp"
    },
    {
      "name": "Lamp"
    },
    {
      "children": [
        5,
        8,
        11,
        14,
        17
      ],
      "matrix": [
        0.04839000000000001,
        0.99883,
        0.0,
        0.0,
        0.0,
        -0.0,
        1.0,
        0.0,
        0.99883,
        -0.04839000000000001,
        -0.0,
        0.0,
        -0.012840000000000002,
        1.67197,
        0.051810000000000016,
        1.0
      ],
      "name": "Punching Bag"
    },
    {
      "children": [
        6
      ],
      "matrix": [
        -0.0,
        -0.3788600000000001,
        -0.0,
        0.0,
        0.0,
        -0.0,
        -0.3788600000000001,
        0.0,
        0.3788600000000001,
        0.0,
        -0.0,
        0.0,
        -0.38011000000000006,
        4.73432,
        0.019340000000000003,
        1.0
      ],
      "name": "Elbow joint_7"
    },
    {
      "children": [
        7
      ],
      "matrix": [
        1.0,
        -0.0,
        0.0,
        0.0,
        0.0,
        1.0,
        0.0,
        0.0,
        0.0,
        0.0,
        1.0,
        0.0,
        -1.7406000000000001,
        0.0,
        0.0,
        1.0
      ],
      "name": "Object_14"
    },
    {
      "mesh": 0,
      "name": "Object_14_0"
    },
    {
      "children": [
        9
      ],
      "matrix": [
        -0.0,
        -0.07516000000000002,
        -0.0,
        0.0,
        0.80101,
        -0.0,
        0.0,
        0.0,
        0.0,
        0.0,
        0.07516000000000002,
        0.0,
        -1.13043,
        5.1129999999999995,
        0.02082,
        1.0
      ],
      "name": "Pipe Horizontal_6"
    },
    {
      "children": [
        10
      ],
      "matrix": [
        1.0,
        -0.0,
        0.0,
        0.0,
        0.0,
        1.13907,
        -0.0,
        0.0,
        0.0,
        0.0,
        1.0271899999999998,
        0.0,
        -8.773859999999999,
        -0.09861000000000003,
        0.45239,
        1.0
      ],
      "name": "Object_12"
    },
    {
      "mesh": 1,
      "name": "Object_12_0"
    },
    {
      "children": [
        12
      ],
      "matrix": [
        0.07516000000000002,
        0.0,
        -0.0,
        0.0,
        0.0,
        2.4414599999999997,
        0.0,
        0.0,
        0.0,
        0.0,
        0.07516000000000002,
        0.0,
        -0.0005300000000000001,
        2.3327799999999996,
        0.02082,
        1.0
      ],
      "name": "Pipe_5"
    },
    {
      "children": [
        13
      ],
      "matrix": [
        1.0,
        -0.0,
        0.0,
        0.0,
        -0.0,
        1.10575,
        -0.0,
        0.0,
        -0.0,
        0.0,
        1.0,
        0.0,
        0.0,
        0.16062,
        -0.0,
        1.0
      ],
      "name": "Object_10"
    },
    {
      "mesh": 2,
      "name": "Object_10_0"
    },
    {
      "children": [
        15
      ],
      "name": "Plane_4"
    },
    {
      "children": [
        16
      ],
      "matrix": [
        1.07457,
        -0.0,
        -0.0,
        0.0,
        0.0,
        1.07457,
        0.0,
        0.0,
        -0.0,
        0.0,
        1.07457,
        0.0,
        -0.0,
        0.05818000000000001,
        -0.0,
        1.0
      ],
      "name": "Object_8"
    },
    {
      "mesh": 3,
      "name": "Object_8_0"
    },
    {
      "name": "Chain_1",
      "rotation": [
        -0.4412710964679718,
        -0.4412710964679718,
        -0.5525213479995728,
        0.5525213479995728
      ],
      "scale": [
        0.11525999754667282,
        0.11525999754667282,
        0.11525999754667282
      ],
      "translation": [
        -1.9174200296401978,
        5.063169956207275,
        0.02921999990940094
      ]
    },
    {
      "children": [
        19
      ],
      "matrix": [
        0.71357,
        0.26702000000000004,
        0.0,
        0.0,
        -0.26702000000000004,
        0.71357,
        0.0,
        0.0,
        0.0,
        0.0,
        0.7619000000000001,
        0.0,
        -0.12257000000000001,
        -0.8464700000000001,
        2.5150399999999995,
        1.0
      ],
      "name": "Cylinder"
    },
    {
      "mesh": 4,
      "name": "Cylinder_0"
    },
    {
      "children": [
        21
      ],
      "matrix": [
        0.0020300000000000006,
        0.0007600000000000003,
        -0.0,
        0.0,
        0.0,
        -0.0,
        0.0021700000000000005,
        0.0,
        0.0007600000000000003,
        -0.0020300000000000006,
        -0.0,
        0.0,
        2.5101999999999998,
        -1.1637,
        7.26941,
        1.0
      ],
      "name": "Vintage / Old punching bag"
    },
    {
      "children": [
        22
      ],
      "matrix": [
        0.99413,
        -0.06323000000000002,
        0.08778000000000002,
        0.0,
        0.06459000000000002,
        0.99783,
        -0.012750000000000003,
        0.0,
        -0.08678000000000002,
        0.018350000000000005,
        0.99606,
        0.0,
        268.02972,
        -2378.54395,
        -685.38452,
        1.0
      ],
      "name": "Object028_1"
    },
    {
      "children": [
        23
      ],
      "matrix": [
        1.22048,
        0.003130000000000001,
        -0.27785000000000004,
        0.0,
        -0.0056700000000000006,
        1.0011199999999998,
        -0.013620000000000002,
        0.0,
        0.27796000000000004,
        0.01819,
        1.22118,
        0.0,
        -1406.7699,
        1109.31152,
        262.88452,
        1.0
      ],
      "name": "Object_7"
    },
    {
      "mesh": 5,
      "name": "Object_7_0"
    }
  ],
  "samplers": [
    {
      "magFilter": 9729,
      "minFilter": 9987,
      "wrapS": 10497,
      "wrapT": 10497
    }
  ],
  "scene": 0,
  "scenes": [
    {
      "name": "Sketchfab_Scene",
      "nodes": [
        0
      ]
    }
  ],
  "textures": [
    {
      "sampler": 0,
      "source": 0
    }
  ]
}
